<?xml version="1.0" encoding="utf-8"?>
<!-- Generator: Adobe Illustrator 15.0.0, SVG Export Plug-In . SVG Version: 6.00 Build 0)  -->
<!DOCTYPE svg PUBLIC "-//W3C//DTD SVG 1.1//EN" "http://www.w3.org/Graphics/SVG/1.1/DTD/svg11.dtd">
<svg version="1.1" id="Calque_1" xmlns="http://www.w3.org/2000/svg" xmlns:xlink="http://www.w3.org/1999/xlink" x="0px" y="0px"
	 width="390.417px" height="105.154px" viewBox="0 0 390.417 105.154" enable-background="new 0 0 390.417 105.154"
	 xml:space="preserve">
<g>
	<g>
		<defs>
			<path id="SVGID_1_" d="M73.917,0l-1.199,1.784c16.369,7.234,27.612,23.428,29.923,41.786
				c3.492,27.757-15.815,53.393-44.452,57.882c-17.139,2.682-34.023-3.332-45.026-14.276c12.71,13.936,30.71,19.624,46.418,17.571
				c31.958-4.174,55.294-29.15,51.339-62.371c-2.522-21.188-17.6-36.465-37-42.376H73.917z"/>
		</defs>
		<clipPath id="SVGID_2_">
			<use xlink:href="#SVGID_1_"  overflow="visible"/>
		</clipPath>
		
			<radialGradient id="SVGID_3_" cx="-147.9189" cy="449.9189" r="1.3304" gradientTransform="matrix(79.8358 -26.3124 -25.2793 -81.252 23256.2617 32659.9609)" gradientUnits="userSpaceOnUse">
			<stop  offset="0" style="stop-color:#FFFFFF"/>
			<stop  offset="0.1059" style="stop-color:#F7F7F7"/>
			<stop  offset="0.2908" style="stop-color:#E2E2E2"/>
			<stop  offset="0.5313" style="stop-color:#BFBFBF"/>
			<stop  offset="0.6061" style="stop-color:#B2B2B2"/>
			<stop  offset="0.6497" style="stop-color:#C0C0A5"/>
			<stop  offset="0.6998" style="stop-color:#CDCC86"/>
			<stop  offset="0.7453" style="stop-color:#D7D45F"/>
			<stop  offset="0.7847" style="stop-color:#DDD936"/>
			<stop  offset="0.8164" style="stop-color:#E0DC05"/>
			<stop  offset="0.8364" style="stop-color:#E1DE00"/>
			<stop  offset="1" style="stop-color:#50AF47"/>
		</radialGradient>
		<polygon clip-path="url(#SVGID_2_)" fill="url(#SVGID_3_)" points="-16.974,9.933 105.414,-30.407 145.016,96.866 22.624,137.203 
					"/>
	</g>
	<g>
		<g enable-background="new    ">
			<g>
				<polygon fill="#118039" points="62.449,80.559 48.788,73.125 48.844,42.881 62.507,50.312 				"/>
				<polygon fill="#129040" points="47.172,47.414 33.51,39.988 49.197,9.944 62.861,17.374 				"/>
				<polygon fill="#138C3F" points="62.861,17.374 49.198,9.944 66.012,7.579 79.673,15.012 				"/>
				<polygon fill="#0F7031" points="47.098,76.626 33.436,69.195 18.162,47.194 31.823,54.626 				"/>
				<polygon fill="#118039" points="14.662,87.274 1,79.841 1.118,16.702 14.779,24.132 				"/>
				<polygon fill="#138C3F" points="14.779,24.132 1.117,16.702 17.926,14.341 31.589,21.771 				"/>
			</g>
		</g>
		<g enable-background="new    ">
			<g>
				<polygon fill="#C7BC67" points="55.252,75.928 41.591,68.497 45.136,62.501 58.798,69.932 				"/>
				<polygon fill="#C7BC67" points="49.72,85.281 36.06,77.851 41.591,68.497 55.253,75.928 				"/>
				<polygon fill="#C7BC67" points="40.771,89.768 27.108,82.336 27.125,73.712 40.786,81.145 				"/>
				<polygon fill="#FFF9C7" points="40.801,72.451 44.273,77.445 49.72,85.281 55.253,75.928 58.798,69.931 58.782,78.616 
					58.764,87.239 40.771,89.768 40.786,81.145 				"/>
				<polygon fill="#C7BC67" points="40.786,81.145 27.125,73.712 27.142,65.019 40.801,72.448 				"/>
			</g>
		</g>
		<g enable-background="new    ">
			<g>
				<polygon fill="#C7BC67" points="49.032,35.505 35.372,28.07 25.419,11.698 39.08,19.128 				"/>
				<polygon fill="#FFF9C7" points="37.316,16.23 60.819,12.929 59.048,16.32 49.032,35.505 39.079,19.128 				"/>
				<polygon fill="#DCCF71" points="37.316,16.23 23.656,8.8 47.156,5.497 60.819,12.929 				"/>
				<polygon fill="#C7BC67" points="39.079,19.128 25.419,11.698 23.656,8.8 37.317,16.23 				"/>
			</g>
		</g>
	</g>
	<path fill="#13A64B" d="M62.861,17.374l-15.688,30.04L31.588,21.771l-16.809,2.361l-0.116,63.142l0.07-0.011l-0.011,0.022
		l3.709-0.543l13.337-1.874v-0.074l0.04-0.003V63.585l0.016-8.78l15.264,22.218l15.42-26.693l-0.058,30.229l17.104-2.406
		l0.121-63.137L62.861,17.374z M31.823,54.626l0.055,0.077l-0.055,0.011V54.626z"/>
	<polygon fill="#117F39" points="42.653,70.574 47.086,77.022 41.71,73.729 40.801,72.451 31.807,67.582 31.807,54.779 	"/>
	<g>
		<g>
			<path fill="#04A64B" d="M136.515,44.576V34.31l-3.043,5.297H130.1l-3.042-5.297v10.267h-5.271V23.138h5.182l4.816,9.455
				l4.819-9.455h5.179v21.438H136.515z"/>
		</g>
		<g>
			<g>
				<path fill="#04A64B" d="M159.573,42.349c-1.564,1.565-3.37,2.41-5.989,2.41c-2.621,0-4.427-0.845-5.995-2.41
					c-2.257-2.258-2.165-5.268-2.165-8.49c0-3.222-0.092-6.233,2.165-8.492c1.568-1.566,3.374-2.408,5.995-2.408
					c2.619,0,4.425,0.842,5.989,2.408c2.262,2.259,2.17,5.271,2.17,8.492C161.743,37.081,161.834,40.091,159.573,42.349z
					 M155.69,28.587c-0.392-0.509-1.144-0.934-2.106-0.934c-0.966,0-1.72,0.425-2.109,0.934c-0.48,0.632-0.784,1.357-0.784,5.271
					c0,3.912,0.304,4.607,0.784,5.238c0.39,0.51,1.144,0.963,2.109,0.963c0.963,0,1.715-0.453,2.106-0.963
					c0.482-0.631,0.783-1.326,0.783-5.238C156.473,29.944,156.172,29.219,155.69,28.587z"/>
			</g>
		</g>
		<g>
			<path fill="#04A64B" d="M179.11,42.47c-1.473,1.479-3.548,2.106-5.777,2.106h-7.951V23.138h7.951
				c2.229,0,4.305,0.632,5.777,2.106c2.502,2.503,2.231,5.24,2.231,8.614C181.341,37.228,181.612,39.97,179.11,42.47z
				 M175.499,29.04c-0.48-0.723-1.203-1.207-2.529-1.207h-2.317v12.048h2.317c1.326,0,2.049-0.483,2.529-1.206
				c0.423-0.604,0.575-1.174,0.575-4.816C176.074,30.243,175.921,29.642,175.499,29.04z"/>
		</g>
		<g>
			<path fill="#04A64B" d="M192.718,44.759c-4.456,0-8.101-3.014-8.101-7.71V23.138h5.271v13.793c0,1.984,1.084,3.129,2.83,3.129
				c1.744,0,2.891-1.145,2.891-3.129V23.138h5.273v13.911C200.882,41.745,197.178,44.759,192.718,44.759z"/>
		</g>
		<g>
			<path fill="#04A64B" d="M204.848,44.576V23.138h5.271v16.743h9.003v4.695H204.848z"/>
		</g>
		<g>
			<path fill="#04A64B" d="M221.499,38.014v-4.638h9.882v4.638H221.499z"/>
		</g>
		<g>
			<g>
				<path fill="#04A64B" d="M248.48,42.349c-1.564,1.565-3.371,2.41-5.989,2.41c-2.623,0-4.429-0.845-5.992-2.41
					c-2.258-2.258-2.17-5.268-2.17-8.49c0-3.222-0.088-6.233,2.17-8.492c1.563-1.566,3.369-2.408,5.992-2.408
					c2.618,0,4.425,0.842,5.989,2.408c2.262,2.259,2.167,5.271,2.167,8.492C250.647,37.081,250.742,40.091,248.48,42.349z
					 M244.598,28.587c-0.393-0.509-1.146-0.934-2.107-0.934c-0.966,0-1.721,0.425-2.109,0.934c-0.48,0.632-0.784,1.357-0.784,5.271
					c0,3.912,0.304,4.607,0.784,5.238c0.389,0.51,1.144,0.963,2.109,0.963c0.962,0,1.715-0.453,2.107-0.963
					c0.48-0.631,0.779-1.326,0.779-5.238C245.377,29.944,245.079,29.219,244.598,28.587z"/>
			</g>
		</g>
		<g>
			<path fill="#04A64B" d="M262.024,44.759c-4.452,0-8.1-3.014-8.1-7.71V23.138h5.274v13.793c0,1.984,1.084,3.129,2.825,3.129
				c1.751,0,2.895-1.145,2.895-3.129V23.138h5.271v13.911C270.19,41.745,266.485,44.759,262.024,44.759z"/>
		</g>
		<g>
			<path fill="#04A64B" d="M274.16,44.576V23.138h14.573v4.695h-9.308v3.584h7.95v4.699h-7.95v3.765h9.308v4.695H274.16z"/>
		</g>
		<g>
			<path fill="#04A64B" d="M298.575,44.759c-3.281,0-5.961-0.604-8.129-2.83l3.371-3.371c1.113,1.113,3.069,1.502,4.787,1.502
				c2.08,0,3.069-0.691,3.069-1.925c0-0.513-0.117-0.936-0.418-1.269c-0.27-0.266-0.723-0.48-1.415-0.57l-2.594-0.359
				c-1.896-0.273-3.34-0.904-4.304-1.896c-0.991-1.023-1.476-2.473-1.476-4.308c0-3.914,2.95-6.774,7.83-6.774
				c3.071,0,5.39,0.725,7.227,2.558l-3.311,3.312c-1.358-1.354-3.134-1.262-4.065-1.262c-1.837,0-2.592,1.053-2.592,1.987
				c0,0.271,0.093,0.661,0.424,0.993c0.267,0.271,0.723,0.543,1.475,0.631l2.591,0.363c1.926,0.268,3.311,0.873,4.213,1.774
				c1.146,1.117,1.597,2.71,1.597,4.699C306.855,42.379,303.094,44.759,298.575,44.759z"/>
		</g>
		<g>
			<path fill="#04A64B" d="M319.586,27.833v16.743h-5.267V27.833h-5.271v-4.695h15.809v4.695H319.586z"/>
		</g>
	</g>
	<g>
		<path d="M124.018,64.858l-1.187,3.63h-1.526l3.882-11.539h1.78l3.899,11.539h-1.577l-1.22-3.63H124.018z M127.764,63.694
			l-1.119-3.321c-0.254-0.753-0.424-1.438-0.593-2.105h-0.034c-0.169,0.685-0.356,1.387-0.577,2.089l-1.119,3.338H127.764z"/>
		<path d="M132.439,62.444c0-0.855-0.017-1.558-0.067-2.242h1.305l0.068,1.335h0.051c0.458-0.787,1.221-1.523,2.577-1.523
			c1.119,0,1.966,0.685,2.323,1.661h0.034c0.254-0.463,0.576-0.822,0.915-1.079c0.491-0.377,1.034-0.582,1.813-0.582
			c1.085,0,2.696,0.719,2.696,3.596v4.879h-1.458v-4.691c0-1.592-0.577-2.551-1.78-2.551c-0.848,0-1.509,0.634-1.763,1.37
			c-0.068,0.205-0.119,0.479-0.119,0.753v5.119h-1.458v-4.965c0-1.318-0.576-2.277-1.712-2.277c-0.933,0-1.611,0.754-1.848,1.507
			c-0.084,0.223-0.119,0.479-0.119,0.736v4.999h-1.458V62.444z"/>
		<path d="M147.403,64.619c0.034,2.037,1.322,2.876,2.814,2.876c1.067,0,1.712-0.188,2.271-0.428l0.254,1.078
			c-0.525,0.24-1.424,0.514-2.729,0.514c-2.525,0-4.034-1.678-4.034-4.177c0-2.5,1.458-4.469,3.848-4.469
			c2.679,0,3.391,2.38,3.391,3.903c0,0.309-0.034,0.548-0.051,0.702H147.403z M151.777,63.54c0.017-0.958-0.391-2.447-2.068-2.447
			c-1.509,0-2.17,1.403-2.289,2.447H151.777z M152.132,56.624l-2.068,2.448h-1.067l1.491-2.448H152.132z"/>
		<path d="M155.062,62.444c0-0.855-0.017-1.558-0.067-2.242h1.322l0.085,1.369h0.033c0.407-0.787,1.356-1.558,2.713-1.558
			c1.136,0,2.898,0.685,2.898,3.526v4.948h-1.491v-4.776c0-1.336-0.492-2.448-1.899-2.448c-0.982,0-1.746,0.702-2,1.541
			c-0.067,0.188-0.102,0.444-0.102,0.701v4.982h-1.492V62.444z"/>
		<path d="M169.011,68.488l-0.119-1.044h-0.051c-0.458,0.65-1.339,1.232-2.509,1.232c-1.661,0-2.509-1.182-2.509-2.38
			c0-2.003,1.763-3.099,4.933-3.082v-0.171c0-0.685-0.187-1.917-1.864-1.917c-0.764,0-1.56,0.239-2.137,0.616l-0.339-0.993
			c0.679-0.445,1.661-0.736,2.695-0.736c2.509,0,3.119,1.729,3.119,3.39v3.099c0,0.72,0.034,1.421,0.136,1.986H169.011z
			 M168.791,64.26c-1.628-0.034-3.476,0.257-3.476,1.866c0,0.976,0.645,1.438,1.407,1.438c1.068,0,1.746-0.685,1.983-1.387
			c0.051-0.154,0.085-0.325,0.085-0.479V64.26z"/>
		<path d="M179.705,60.202c-0.034,0.599-0.067,1.267-0.067,2.277v4.811c0,1.9-0.373,3.064-1.17,3.783
			c-0.797,0.754-1.949,0.993-2.983,0.993c-0.983,0-2.068-0.239-2.729-0.685l0.373-1.147c0.542,0.343,1.39,0.65,2.407,0.65
			c1.525,0,2.645-0.805,2.645-2.893v-0.925h-0.034c-0.458,0.771-1.339,1.387-2.61,1.387c-2.034,0-3.492-1.746-3.492-4.04
			c0-2.809,1.813-4.4,3.695-4.4c1.424,0,2.204,0.753,2.56,1.438h0.034l0.067-1.25H179.705z M178.162,63.472
			c0-0.257-0.017-0.479-0.084-0.685c-0.271-0.873-1.001-1.592-2.086-1.592c-1.424,0-2.44,1.215-2.44,3.133
			c0,1.626,0.813,2.979,2.424,2.979c0.915,0,1.746-0.582,2.068-1.54c0.085-0.257,0.118-0.548,0.118-0.805V63.472z"/>
		<path d="M182.939,64.619c0.034,2.037,1.322,2.876,2.813,2.876c1.068,0,1.713-0.188,2.272-0.428l0.254,1.078
			c-0.525,0.24-1.424,0.514-2.729,0.514c-2.525,0-4.034-1.678-4.034-4.177c0-2.5,1.458-4.469,3.848-4.469
			c2.679,0,3.391,2.38,3.391,3.903c0,0.309-0.034,0.548-0.051,0.702H182.939z M187.313,63.54c0.017-0.958-0.391-2.447-2.068-2.447
			c-1.509,0-2.17,1.403-2.289,2.447H187.313z"/>
		<path d="M190.597,62.444c0-0.855-0.017-1.558-0.067-2.242h1.305l0.068,1.335h0.051c0.458-0.787,1.221-1.523,2.577-1.523
			c1.118,0,1.966,0.685,2.322,1.661h0.034c0.254-0.463,0.576-0.822,0.915-1.079c0.491-0.377,1.034-0.582,1.813-0.582
			c1.085,0,2.696,0.719,2.696,3.596v4.879h-1.458v-4.691c0-1.592-0.577-2.551-1.78-2.551c-0.848,0-1.509,0.634-1.763,1.37
			c-0.068,0.205-0.119,0.479-0.119,0.753v5.119h-1.458v-4.965c0-1.318-0.576-2.277-1.712-2.277c-0.933,0-1.61,0.754-1.848,1.507
			c-0.085,0.223-0.119,0.479-0.119,0.736v4.999h-1.458V62.444z"/>
		<path d="M205.561,64.619c0.034,2.037,1.322,2.876,2.814,2.876c1.067,0,1.712-0.188,2.271-0.428l0.254,1.078
			c-0.525,0.24-1.424,0.514-2.729,0.514c-2.525,0-4.034-1.678-4.034-4.177c0-2.5,1.458-4.469,3.848-4.469
			c2.679,0,3.391,2.38,3.391,3.903c0,0.309-0.034,0.548-0.051,0.702H205.561z M209.935,63.54c0.017-0.958-0.391-2.447-2.068-2.447
			c-1.509,0-2.17,1.403-2.289,2.447H209.935z"/>
		<path d="M213.22,62.444c0-0.855-0.017-1.558-0.067-2.242h1.322l0.085,1.369h0.033c0.407-0.787,1.356-1.558,2.713-1.558
			c1.136,0,2.898,0.685,2.898,3.526v4.948h-1.491v-4.776c0-1.336-0.492-2.448-1.899-2.448c-0.982,0-1.746,0.702-2,1.541
			c-0.067,0.188-0.102,0.444-0.102,0.701v4.982h-1.492V62.444z"/>
		<path d="M224.354,57.822v2.38h2.137v1.146h-2.137v4.469c0,1.027,0.288,1.609,1.119,1.609c0.39,0,0.678-0.052,0.864-0.103
			l0.068,1.13c-0.288,0.12-0.746,0.205-1.322,0.205c-0.695,0-1.255-0.223-1.61-0.633c-0.424-0.445-0.577-1.182-0.577-2.157v-4.521
			h-1.271v-1.146h1.271v-1.986L224.354,57.822z"/>
		<path d="M235.218,63.301v1.113h-4.188v-1.113H235.218z"/>
		<path d="M246.521,63.078h-4.441v4.16h4.95v1.25h-6.426V56.949h6.171v1.25h-4.695v3.646h4.441V63.078z M246.233,54.33l-2.153,2.003
			h-1.221l1.577-2.003H246.233z"/>
		<path d="M254.417,67.204h-0.034c-0.44,0.822-1.356,1.473-2.679,1.473c-1.915,0-3.475-1.678-3.475-4.194
			c0-3.099,1.983-4.469,3.712-4.469c1.271,0,2.119,0.634,2.526,1.438h0.034l0.051-1.25h1.407c-0.034,0.702-0.052,1.421-0.052,2.277
			v9.398h-1.491V67.204z M254.417,63.558c0-0.205-0.018-0.445-0.068-0.634c-0.22-0.924-1.017-1.712-2.136-1.712
			c-1.543,0-2.475,1.318-2.475,3.185c0,1.644,0.779,3.082,2.424,3.082c0.967,0,1.797-0.6,2.136-1.644
			c0.068-0.206,0.119-0.497,0.119-0.72V63.558z"/>
		<path d="M265.23,66.229c0,0.855,0.017,1.609,0.067,2.26h-1.322l-0.085-1.353h-0.033c-0.391,0.668-1.255,1.541-2.713,1.541
			c-1.288,0-2.831-0.719-2.831-3.63v-4.845h1.492v4.588c0,1.575,0.475,2.637,1.831,2.637c1,0,1.695-0.702,1.966-1.369
			c0.085-0.223,0.136-0.497,0.136-0.771v-5.085h1.492V66.229z"/>
		<path d="M269.362,57.874c0.018,0.514-0.355,0.924-0.949,0.924c-0.525,0-0.898-0.41-0.898-0.924c0-0.531,0.391-0.942,0.933-0.942
			C269.006,56.932,269.362,57.343,269.362,57.874z M267.701,68.488v-8.286h1.492v8.286H267.701z"/>
		<path d="M271.667,62.907c0-1.062-0.033-1.918-0.067-2.705h1.339l0.068,1.421h0.033c0.61-1.01,1.577-1.609,2.916-1.609
			c1.983,0,3.476,1.695,3.476,4.212c0,2.979-1.797,4.451-3.729,4.451c-1.085,0-2.034-0.479-2.526-1.302h-0.034v4.503h-1.475V62.907z
			 M273.141,65.115c0,0.223,0.034,0.429,0.068,0.616c0.271,1.045,1.17,1.764,2.237,1.764c1.577,0,2.492-1.301,2.492-3.201
			c0-1.661-0.864-3.082-2.441-3.082c-1.017,0-1.966,0.736-2.254,1.866c-0.051,0.188-0.103,0.411-0.103,0.616V65.115z"/>
		<path d="M282.139,64.619c0.034,2.037,1.322,2.876,2.814,2.876c1.067,0,1.712-0.188,2.271-0.428l0.254,1.078
			c-0.525,0.24-1.424,0.514-2.729,0.514c-2.525,0-4.034-1.678-4.034-4.177c0-2.5,1.458-4.469,3.848-4.469
			c2.679,0,3.391,2.38,3.391,3.903c0,0.309-0.034,0.548-0.051,0.702H282.139z M286.513,63.54c0.017-0.958-0.391-2.447-2.068-2.447
			c-1.509,0-2.17,1.403-2.289,2.447H286.513z"/>
		<path d="M289.798,62.444c0-0.855-0.017-1.558-0.067-2.242h1.305l0.068,1.335h0.051c0.458-0.787,1.221-1.523,2.577-1.523
			c1.118,0,1.966,0.685,2.322,1.661h0.034c0.254-0.463,0.576-0.822,0.915-1.079c0.491-0.377,1.034-0.582,1.813-0.582
			c1.085,0,2.696,0.719,2.696,3.596v4.879h-1.458v-4.691c0-1.592-0.577-2.551-1.78-2.551c-0.848,0-1.509,0.634-1.763,1.37
			c-0.068,0.205-0.119,0.479-0.119,0.753v5.119h-1.458v-4.965c0-1.318-0.576-2.277-1.712-2.277c-0.933,0-1.61,0.754-1.848,1.507
			c-0.085,0.223-0.119,0.479-0.119,0.736v4.999h-1.458V62.444z"/>
		<path d="M304.762,64.619c0.034,2.037,1.322,2.876,2.814,2.876c1.067,0,1.712-0.188,2.271-0.428l0.254,1.078
			c-0.525,0.24-1.424,0.514-2.729,0.514c-2.525,0-4.034-1.678-4.034-4.177c0-2.5,1.458-4.469,3.848-4.469
			c2.679,0,3.391,2.38,3.391,3.903c0,0.309-0.034,0.548-0.051,0.702H304.762z M309.136,63.54c0.017-0.958-0.391-2.447-2.068-2.447
			c-1.509,0-2.17,1.403-2.289,2.447H309.136z"/>
		<path d="M312.421,62.444c0-0.855-0.017-1.558-0.067-2.242h1.322l0.085,1.369h0.033c0.407-0.787,1.356-1.558,2.713-1.558
			c1.136,0,2.898,0.685,2.898,3.526v4.948h-1.491v-4.776c0-1.336-0.492-2.448-1.899-2.448c-0.982,0-1.746,0.702-2,1.541
			c-0.067,0.188-0.102,0.444-0.102,0.701v4.982h-1.492V62.444z"/>
		<path d="M323.555,57.822v2.38h2.137v1.146h-2.137v4.469c0,1.027,0.288,1.609,1.119,1.609c0.39,0,0.678-0.052,0.864-0.103
			l0.068,1.13c-0.288,0.12-0.746,0.205-1.322,0.205c-0.695,0-1.255-0.223-1.61-0.633c-0.424-0.445-0.577-1.182-0.577-2.157v-4.521
			h-1.271v-1.146h1.271v-1.986L323.555,57.822z"/>
		<path d="M124.34,78.757h-3.476V77.49h8.459v1.267h-3.492v10.272h-1.492V78.757z"/>
		<path d="M129.778,83.328c0-0.976-0.017-1.814-0.067-2.585h1.305l0.051,1.626h0.068c0.373-1.112,1.271-1.814,2.271-1.814
			c0.169,0,0.289,0.018,0.424,0.052v1.421c-0.152-0.034-0.305-0.052-0.508-0.052c-1.051,0-1.797,0.805-2,1.935
			c-0.034,0.206-0.068,0.445-0.068,0.702v4.417h-1.475V83.328z"/>
		<path d="M139.779,89.029l-0.119-1.044h-0.051c-0.458,0.65-1.339,1.232-2.509,1.232c-1.662,0-2.509-1.182-2.509-2.38
			c0-2.003,1.763-3.099,4.933-3.082v-0.171c0-0.685-0.187-1.917-1.864-1.917c-0.763,0-1.56,0.239-2.136,0.616l-0.339-0.993
			c0.678-0.445,1.662-0.736,2.695-0.736c2.509,0,3.119,1.729,3.119,3.39v3.099c0,0.72,0.034,1.421,0.136,1.986H139.779z
			 M139.558,84.801c-1.628-0.034-3.476,0.257-3.476,1.866c0,0.976,0.645,1.438,1.407,1.438c1.068,0,1.746-0.685,1.983-1.387
			c0.051-0.154,0.085-0.325,0.085-0.479V84.801z"/>
		<path d="M143.403,82.985c0-0.855-0.017-1.558-0.067-2.242h1.322l0.085,1.369h0.033c0.407-0.787,1.356-1.558,2.713-1.558
			c1.136,0,2.898,0.685,2.898,3.526v4.948h-1.491v-4.776c0-1.336-0.492-2.448-1.899-2.448c-0.982,0-1.746,0.702-2,1.541
			c-0.067,0.188-0.102,0.444-0.102,0.701v4.982h-1.492V82.985z"/>
		<path d="M152.605,87.488c0.44,0.291,1.221,0.6,1.967,0.6c1.085,0,1.593-0.548,1.593-1.232c0-0.72-0.424-1.113-1.525-1.524
			c-1.475-0.53-2.17-1.353-2.17-2.346c0-1.335,1.068-2.431,2.831-2.431c0.831,0,1.56,0.239,2.018,0.514l-0.373,1.096
			c-0.322-0.205-0.915-0.479-1.679-0.479c-0.881,0-1.373,0.514-1.373,1.13c0,0.685,0.492,0.993,1.56,1.404
			c1.424,0.548,2.153,1.267,2.153,2.499c0,1.455-1.119,2.482-3.068,2.482c-0.898,0-1.729-0.223-2.306-0.564L152.605,87.488z"/>
		<path d="M159.67,89.029v-7.14h-1.152v-1.146h1.152V80.35c0-1.164,0.255-2.226,0.95-2.894c0.559-0.548,1.305-0.771,2-0.771
			c0.525,0,0.983,0.12,1.271,0.239l-0.203,1.165c-0.221-0.104-0.526-0.188-0.949-0.188c-1.271,0-1.594,1.13-1.594,2.396v0.445h1.983
			v1.146h-1.983v7.14H159.67z"/>
		<path d="M171.672,84.817c0,3.064-2.103,4.4-4.086,4.4c-2.221,0-3.933-1.644-3.933-4.263c0-2.774,1.797-4.4,4.068-4.4
			C170.079,80.555,171.672,82.284,171.672,84.817z M165.163,84.903c0,1.814,1.034,3.185,2.491,3.185
			c1.425,0,2.492-1.353,2.492-3.219c0-1.404-0.694-3.185-2.458-3.185C165.925,81.685,165.163,83.328,165.163,84.903z"/>
		<path d="M173.55,83.328c0-0.976-0.017-1.814-0.067-2.585h1.305l0.052,1.626h0.067c0.373-1.112,1.271-1.814,2.271-1.814
			c0.17,0,0.288,0.018,0.424,0.052v1.421c-0.152-0.034-0.305-0.052-0.509-0.052c-1.051,0-1.797,0.805-2,1.935
			c-0.034,0.206-0.067,0.445-0.067,0.702v4.417h-1.476V83.328z"/>
		<path d="M179.159,82.985c0-0.855-0.017-1.558-0.067-2.242h1.305l0.068,1.335h0.051c0.458-0.787,1.221-1.523,2.577-1.523
			c1.118,0,1.966,0.685,2.322,1.661h0.034c0.254-0.463,0.576-0.822,0.915-1.079c0.491-0.377,1.034-0.582,1.813-0.582
			c1.085,0,2.696,0.719,2.696,3.596v4.879h-1.458v-4.691c0-1.592-0.577-2.551-1.78-2.551c-0.848,0-1.509,0.634-1.763,1.37
			c-0.068,0.205-0.119,0.479-0.119,0.753v5.119h-1.458v-4.965c0-1.318-0.576-2.277-1.712-2.277c-0.933,0-1.61,0.754-1.848,1.507
			c-0.085,0.223-0.119,0.479-0.119,0.736v4.999h-1.458V82.985z"/>
		<path d="M197.835,89.029l-0.119-1.044h-0.051c-0.458,0.65-1.339,1.232-2.509,1.232c-1.661,0-2.509-1.182-2.509-2.38
			c0-2.003,1.763-3.099,4.933-3.082v-0.171c0-0.685-0.187-1.917-1.864-1.917c-0.764,0-1.56,0.239-2.137,0.616l-0.339-0.993
			c0.679-0.445,1.661-0.736,2.695-0.736c2.509,0,3.119,1.729,3.119,3.39v3.099c0,0.72,0.034,1.421,0.136,1.986H197.835z
			 M197.615,84.801c-1.628-0.034-3.476,0.257-3.476,1.866c0,0.976,0.645,1.438,1.407,1.438c1.068,0,1.746-0.685,1.983-1.387
			c0.051-0.154,0.085-0.325,0.085-0.479V84.801z"/>
		<path d="M203.189,78.363v2.38h2.137v1.146h-2.137v4.469c0,1.027,0.288,1.609,1.119,1.609c0.39,0,0.678-0.052,0.864-0.103
			l0.068,1.13c-0.288,0.12-0.746,0.205-1.322,0.205c-0.695,0-1.255-0.223-1.61-0.633c-0.424-0.445-0.577-1.182-0.577-2.157V81.89
			h-1.271v-1.146h1.271v-1.986L203.189,78.363z"/>
		<path d="M208.663,78.415c0.018,0.514-0.355,0.924-0.949,0.924c-0.525,0-0.898-0.41-0.898-0.924c0-0.531,0.391-0.942,0.933-0.942
			C208.307,77.473,208.663,77.884,208.663,78.415z M207.001,89.029v-8.286h1.492v8.286H207.001z"/>
		<path d="M218.392,84.817c0,3.064-2.103,4.4-4.086,4.4c-2.221,0-3.933-1.644-3.933-4.263c0-2.774,1.797-4.4,4.068-4.4
			C216.798,80.555,218.392,82.284,218.392,84.817z M211.882,84.903c0,1.814,1.034,3.185,2.491,3.185
			c1.425,0,2.492-1.353,2.492-3.219c0-1.404-0.694-3.185-2.458-3.185C212.645,81.685,211.882,83.328,211.882,84.903z"/>
		<path d="M220.27,82.985c0-0.855-0.017-1.558-0.067-2.242h1.322l0.085,1.369h0.033c0.407-0.787,1.356-1.558,2.713-1.558
			c1.136,0,2.898,0.685,2.898,3.526v4.948h-1.491v-4.776c0-1.336-0.492-2.448-1.899-2.448c-0.982,0-1.746,0.702-2,1.541
			c-0.067,0.188-0.102,0.444-0.102,0.701v4.982h-1.492V82.985z"/>
		<path d="M240.353,76.874V86.89c0,0.735,0.018,1.574,0.068,2.14h-1.339l-0.068-1.438h-0.034c-0.457,0.925-1.458,1.627-2.797,1.627
			c-1.983,0-3.509-1.695-3.509-4.212c-0.018-2.756,1.678-4.451,3.679-4.451c1.254,0,2.102,0.6,2.475,1.267h0.034v-4.947H240.353z
			 M238.862,84.116c0-0.188-0.018-0.445-0.068-0.634c-0.22-0.959-1.034-1.746-2.152-1.746c-1.543,0-2.458,1.369-2.458,3.201
			c0,1.678,0.813,3.064,2.424,3.064c1,0,1.916-0.668,2.187-1.798c0.051-0.205,0.068-0.41,0.068-0.65V84.116z"/>
		<path d="M243.656,85.16c0.034,2.037,1.322,2.876,2.813,2.876c1.068,0,1.713-0.188,2.272-0.428l0.254,1.078
			c-0.525,0.24-1.424,0.514-2.729,0.514c-2.525,0-4.034-1.678-4.034-4.177c0-2.5,1.458-4.469,3.848-4.469
			c2.679,0,3.391,2.38,3.391,3.903c0,0.309-0.034,0.548-0.051,0.702H243.656z M248.03,84.081c0.017-0.958-0.391-2.447-2.068-2.447
			c-1.509,0-2.17,1.403-2.289,2.447H248.03z"/>
		<path d="M255.483,80.743l1.611,4.656c0.271,0.754,0.491,1.438,0.661,2.123h0.051c0.187-0.685,0.424-1.369,0.694-2.123l1.594-4.656
			h1.56l-3.221,8.286h-1.424l-3.119-8.286H255.483z"/>
		<path d="M263.719,85.16c0.034,2.037,1.322,2.876,2.814,2.876c1.067,0,1.712-0.188,2.271-0.428l0.254,1.078
			c-0.525,0.24-1.424,0.514-2.729,0.514c-2.525,0-4.034-1.678-4.034-4.177c0-2.5,1.458-4.469,3.848-4.469
			c2.679,0,3.391,2.38,3.391,3.903c0,0.309-0.034,0.548-0.051,0.702H263.719z M268.093,84.081c0.017-0.958-0.391-2.447-2.068-2.447
			c-1.509,0-2.17,1.403-2.289,2.447H268.093z M268.449,77.165l-2.068,2.448h-1.067l1.491-2.448H268.449z"/>
		<path d="M271.378,76.874h1.492v5.17h0.034c0.237-0.428,0.61-0.805,1.067-1.062c0.441-0.257,0.967-0.428,1.526-0.428
			c1.102,0,2.864,0.685,2.864,3.544v4.931h-1.491v-4.76c0-1.335-0.492-2.465-1.899-2.465c-0.966,0-1.729,0.685-2,1.507
			c-0.085,0.205-0.102,0.428-0.102,0.719v4.999h-1.492V76.874z"/>
		<path d="M282.445,78.415c0.018,0.514-0.355,0.924-0.949,0.924c-0.525,0-0.898-0.41-0.898-0.924c0-0.531,0.391-0.942,0.933-0.942
			C282.089,77.473,282.445,77.884,282.445,78.415z M280.784,89.029v-8.286h1.492v8.286H280.784z"/>
		<path d="M290.597,88.721c-0.39,0.206-1.254,0.479-2.356,0.479c-2.475,0-4.085-1.694-4.085-4.229c0-2.551,1.729-4.399,4.407-4.399
			c0.882,0,1.661,0.222,2.068,0.428l-0.339,1.164c-0.356-0.205-0.916-0.394-1.729-0.394c-1.882,0-2.898,1.403-2.898,3.133
			c0,1.917,1.221,3.099,2.848,3.099c0.848,0,1.407-0.223,1.831-0.411L290.597,88.721z"/>
		<path d="M299.207,86.77c0,0.855,0.017,1.609,0.067,2.26h-1.322l-0.085-1.353h-0.033c-0.391,0.668-1.255,1.541-2.713,1.541
			c-1.288,0-2.831-0.719-2.831-3.63v-4.845h1.492v4.588c0,1.575,0.475,2.637,1.831,2.637c1,0,1.695-0.702,1.966-1.369
			c0.085-0.223,0.136-0.497,0.136-0.771v-5.085h1.492V86.77z"/>
		<path d="M301.677,76.874h1.492v12.155h-1.492V76.874z"/>
		<path d="M306.507,85.16c0.034,2.037,1.322,2.876,2.813,2.876c1.068,0,1.713-0.188,2.272-0.428l0.254,1.078
			c-0.525,0.24-1.424,0.514-2.729,0.514c-2.525,0-4.034-1.678-4.034-4.177c0-2.5,1.458-4.469,3.848-4.469
			c2.679,0,3.391,2.38,3.391,3.903c0,0.309-0.034,0.548-0.051,0.702H306.507z M310.881,84.081c0.017-0.958-0.391-2.447-2.068-2.447
			c-1.509,0-2.17,1.403-2.289,2.447H310.881z"/>
		<path d="M313.963,87.488c0.44,0.291,1.221,0.6,1.967,0.6c1.085,0,1.593-0.548,1.593-1.232c0-0.72-0.424-1.113-1.525-1.524
			c-1.475-0.53-2.17-1.353-2.17-2.346c0-1.335,1.068-2.431,2.831-2.431c0.831,0,1.56,0.239,2.018,0.514l-0.373,1.096
			c-0.322-0.205-0.915-0.479-1.679-0.479c-0.881,0-1.373,0.514-1.373,1.13c0,0.685,0.492,0.993,1.56,1.404
			c1.424,0.548,2.153,1.267,2.153,2.499c0,1.455-1.119,2.482-3.068,2.482c-0.898,0-1.729-0.223-2.306-0.564L313.963,87.488z"/>
		<path d="M331.335,86.77c0,0.855,0.017,1.609,0.067,2.26h-1.322l-0.085-1.353h-0.033c-0.391,0.668-1.255,1.541-2.713,1.541
			c-1.288,0-2.831-0.719-2.831-3.63v-4.845h1.492v4.588c0,1.575,0.475,2.637,1.831,2.637c1,0,1.695-0.702,1.966-1.369
			c0.085-0.223,0.136-0.497,0.136-0.771v-5.085h1.492V86.77z"/>
		<path d="M335.604,78.363v2.38h2.137v1.146h-2.137v4.469c0,1.027,0.288,1.609,1.119,1.609c0.39,0,0.678-0.052,0.864-0.103
			l0.068,1.13c-0.288,0.12-0.746,0.205-1.322,0.205c-0.695,0-1.255-0.223-1.61-0.633c-0.424-0.445-0.577-1.182-0.577-2.157V81.89
			h-1.271v-1.146h1.271v-1.986L335.604,78.363z"/>
		<path d="M341.077,78.415c0.018,0.514-0.355,0.924-0.949,0.924c-0.525,0-0.898-0.41-0.898-0.924c0-0.531,0.391-0.942,0.933-0.942
			C340.721,77.473,341.077,77.884,341.077,78.415z M339.416,89.029v-8.286h1.492v8.286H339.416z"/>
		<path d="M343.381,76.874h1.492v12.155h-1.492V76.874z"/>
		<path d="M349.042,78.415c0.018,0.514-0.355,0.924-0.949,0.924c-0.525,0-0.898-0.41-0.898-0.924c0-0.531,0.391-0.942,0.933-0.942
			C348.686,77.473,349.042,77.884,349.042,78.415z M347.38,89.029v-8.286h1.492v8.286H347.38z"/>
		<path d="M353.142,78.363v2.38h2.137v1.146h-2.137v4.469c0,1.027,0.288,1.609,1.119,1.609c0.39,0,0.678-0.052,0.864-0.103
			l0.068,1.13c-0.288,0.12-0.746,0.205-1.322,0.205c-0.695,0-1.255-0.223-1.61-0.633c-0.424-0.445-0.577-1.182-0.577-2.157V81.89
			h-1.271v-1.146h1.271v-1.986L353.142,78.363z"/>
		<path d="M361.499,89.029l-0.119-1.044h-0.051c-0.458,0.65-1.339,1.232-2.509,1.232c-1.661,0-2.509-1.182-2.509-2.38
			c0-2.003,1.763-3.099,4.933-3.082v-0.171c0-0.685-0.187-1.917-1.864-1.917c-0.764,0-1.56,0.239-2.137,0.616l-0.339-0.993
			c0.679-0.445,1.661-0.736,2.695-0.736c2.509,0,3.119,1.729,3.119,3.39v3.099c0,0.72,0.034,1.421,0.136,1.986H361.499z
			 M361.278,84.801c-1.628-0.034-3.476,0.257-3.476,1.866c0,0.976,0.645,1.438,1.407,1.438c1.068,0,1.746-0.685,1.983-1.387
			c0.051-0.154,0.085-0.325,0.085-0.479V84.801z"/>
		<path d="M366.784,78.415c0.018,0.514-0.355,0.924-0.949,0.924c-0.525,0-0.898-0.41-0.898-0.924c0-0.531,0.391-0.942,0.933-0.942
			C366.428,77.473,366.784,77.884,366.784,78.415z M365.123,89.029v-8.286h1.492v8.286H365.123z"/>
		<path d="M369.087,83.328c0-0.976-0.017-1.814-0.067-2.585h1.305l0.052,1.626h0.067c0.373-1.112,1.271-1.814,2.271-1.814
			c0.17,0,0.288,0.018,0.424,0.052v1.421c-0.152-0.034-0.305-0.052-0.509-0.052c-1.051,0-1.797,0.805-2,1.935
			c-0.034,0.206-0.067,0.445-0.067,0.702v4.417h-1.476V83.328z"/>
		<path d="M375.291,85.16c0.034,2.037,1.322,2.876,2.813,2.876c1.068,0,1.713-0.188,2.272-0.428l0.254,1.078
			c-0.525,0.24-1.424,0.514-2.729,0.514c-2.525,0-4.034-1.678-4.034-4.177c0-2.5,1.458-4.469,3.848-4.469
			c2.679,0,3.391,2.38,3.391,3.903c0,0.309-0.034,0.548-0.051,0.702H375.291z M379.665,84.081c0.017-0.958-0.391-2.447-2.068-2.447
			c-1.509,0-2.17,1.403-2.289,2.447H379.665z"/>
		<path d="M382.747,87.488c0.44,0.291,1.221,0.6,1.967,0.6c1.085,0,1.593-0.548,1.593-1.232c0-0.72-0.424-1.113-1.525-1.524
			c-1.475-0.53-2.17-1.353-2.17-2.346c0-1.335,1.068-2.431,2.831-2.431c0.831,0,1.56,0.239,2.018,0.514l-0.373,1.096
			c-0.322-0.205-0.915-0.479-1.679-0.479c-0.881,0-1.373,0.514-1.373,1.13c0,0.685,0.492,0.993,1.56,1.404
			c1.424,0.548,2.153,1.267,2.153,2.499c0,1.455-1.119,2.482-3.068,2.482c-0.898,0-1.729-0.223-2.306-0.564L382.747,87.488z"/>
	</g>
</g>
</svg>
